<svg width="171" height="40" viewBox="0 0 171 40" fill="none" xmlns="http://www.w3.org/2000/svg">
<g clip-path="url(#clip0_227_6140)">
<path d="M19.879 40C30.8578 40 39.7579 31.0457 39.7579 20C39.7579 8.9543 30.8578 0 19.879 0C8.90011 0 0 8.9543 0 20C0 31.0457 8.90011 40 19.879 40Z" fill="#FF5034"/>
<path d="M144.249 21.6064C142.825 20.0401 140.736 18.9558 137.969 18.34C140.417 17.8982 142.306 17.0013 143.61 15.6626C144.927 14.3239 145.579 12.597 145.566 10.5087C145.553 7.63047 144.435 5.43503 142.213 3.92231C139.991 2.42298 136.731 1.67331 132.46 1.6867L126.113 1.70009H121.469V38.2463H121.735L126.206 38.2597H133.391C137.317 38.1659 140.443 37.2021 142.772 35.3815C145.194 33.4672 146.404 30.8835 146.391 27.6439C146.378 25.1807 145.673 23.1726 144.249 21.6064ZM129.852 7.06822C129.958 7.06822 130.091 7.05484 130.264 7.04145C130.491 7.02806 130.664 7.01468 130.783 7.01468C132.806 7.01468 134.376 7.4029 135.467 8.19272C136.571 8.98255 137.117 10.107 137.13 11.5796C137.13 13.0254 136.611 14.1499 135.573 14.9531C134.522 15.7563 133.059 16.1579 131.156 16.1579C130.837 16.1579 130.584 16.1579 130.384 16.1445C130.211 16.1445 130.025 16.1178 129.852 16.091V7.06822ZM136.106 31.2048C134.868 32.1419 133.112 32.6104 130.823 32.6238C130.73 32.6238 130.57 32.6104 130.344 32.597C130.118 32.5836 129.958 32.5702 129.839 32.5702V31.9009V21.5662H130.664C133.045 21.5528 134.842 22.0348 136.079 22.9852C137.303 23.9357 137.929 25.3413 137.942 27.2021C137.955 28.929 137.343 30.2677 136.106 31.2048Z" fill="#002227"/>
<path d="M58.7988 1.71387V16.0378H52.412V1.71387H44.0293V38.26H52.412V22.0619H58.7988V38.26H67.1815V1.71387H58.7988Z" fill="#002227"/>
<path d="M82.8822 32.236V1.71387H74.4995V38.26H75.1648H82.8822H92.8616V32.236H82.8822Z" fill="#002227"/>
<path d="M115.082 7.60409V1.71387H105.369H97.3855H96.9863V38.26H97.3855H105.369H115.082V32.236H105.369V21.9281H115.082V16.1717H105.369V7.60409H115.082Z" fill="#002227"/>
<path d="M170.435 7.60409V1.71387H160.722H152.738H152.339V38.26H152.738H160.722H170.435V32.236H160.722V21.9281H170.435V16.1717H160.722V7.60409H170.435Z" fill="#002227"/>
</g>
<defs>
<clipPath id="clip0_227_6140">
<rect width="170.435" height="40" fill="white"/>
</clipPath>
</defs>
</svg>
