<svg width="334" height="92" viewBox="0 0 334 92" fill="none" xmlns="http://www.w3.org/2000/svg">
<path d="M22.9491 29.492L18.5391 26.522C20.9391 30.662 23.6391 33.642 26.7091 35.712L31.1191 38.682C28.0491 36.612 25.3491 33.632 22.9491 29.492V29.492Z" fill="url(#paint0_linear_1466_208)"/>
<path style="mix-blend-mode:multiply" d="M57.1416 9.16206C57.0616 9.10206 56.9716 9.05206 56.8616 9.00206C56.2216 8.67206 55.5716 8.37206 54.9116 8.08206C54.6916 7.99206 54.4616 7.91206 54.2416 7.82206C53.7916 7.64206 53.3316 7.46206 52.8716 7.30206C52.6016 7.21206 52.3316 7.12206 52.0516 7.04206C51.6216 6.90206 51.1916 6.77206 50.7516 6.65206C50.4616 6.57206 50.1616 6.50206 49.8616 6.42206C49.4316 6.31206 49.0016 6.21206 48.5616 6.12206C48.4116 6.09206 48.2616 6.05206 48.1116 6.02206C47.9116 5.98206 47.7116 5.96206 47.5116 5.92206C47.2416 5.87206 46.9816 5.83206 46.7116 5.79206C46.3016 5.73206 45.8916 5.68206 45.4716 5.63206C45.2116 5.60206 44.9516 5.57206 44.6916 5.54206C44.2416 5.50206 43.7816 5.47206 43.3216 5.44206C43.1016 5.43206 42.8816 5.41206 42.6516 5.40206C41.9716 5.37206 41.2816 5.36206 40.5916 5.36206C40.5516 5.36206 40.5216 5.36206 40.4816 5.36206C39.9016 5.36206 39.3116 5.39206 38.7316 5.42206C38.5716 5.42206 38.4216 5.45206 38.2616 5.46206C37.8116 5.49206 37.3616 5.53206 36.9016 5.57206C36.6816 5.59206 36.4516 5.62206 36.2316 5.65206C35.8416 5.70206 35.4516 5.75206 35.0716 5.80206C34.8316 5.84206 34.5916 5.88206 34.3416 5.92206C34.1316 5.96206 33.9216 5.98206 33.7116 6.02206C33.4216 6.07206 33.1416 6.13206 32.8516 6.19206L37.2616 9.16206C37.7616 9.06206 38.2516 8.97206 38.7516 8.89206C38.9916 8.85206 39.2316 8.81206 39.4816 8.77206C39.8716 8.71206 40.2616 8.66206 40.6416 8.62206C40.8616 8.59206 41.0916 8.56206 41.3116 8.54206C41.7616 8.49206 42.2116 8.46206 42.6716 8.43206C42.8316 8.42206 42.9816 8.40206 43.1416 8.39206C43.7616 8.35206 44.3816 8.33206 45.0016 8.32206C45.6916 8.32206 46.3816 8.32206 47.0616 8.36206C47.2816 8.36206 47.5016 8.39206 47.7316 8.40206C48.1916 8.43206 48.6516 8.46206 49.1016 8.50206C49.3616 8.52206 49.6216 8.56206 49.8816 8.59206C50.2916 8.64206 50.7116 8.69206 51.1116 8.75206C51.3816 8.79206 51.6416 8.84206 51.9116 8.88206C52.2616 8.94206 52.6116 9.01206 52.9616 9.08206C53.4016 9.17206 53.8316 9.27206 54.2616 9.38206C54.5616 9.45206 54.8516 9.53206 55.1516 9.61206C55.5916 9.73206 56.0216 9.86206 56.4516 10.0021C56.7216 10.0921 57.0016 10.1721 57.2716 10.2621C57.7316 10.4221 58.1916 10.6021 58.6416 10.7821C58.8616 10.8721 59.0916 10.9521 59.3116 11.0421C59.9816 11.3321 60.6316 11.6321 61.2616 11.9621C61.3616 12.0121 61.4516 12.0721 61.5416 12.1221L57.1316 9.15206L57.1416 9.16206Z" fill="url(#paint1_linear_1466_208)"/>
<path style="mix-blend-mode:multiply" d="M33.3288 3.24196C33.6088 3.32196 33.4688 3.27196 33.7388 3.39196C33.7988 3.42196 33.8588 3.44196 33.9188 3.47196C34.1788 3.60196 34.4388 3.73196 34.6788 3.89196C34.6788 3.89196 33.3888 2.25196 29.9188 0.651962C29.8588 0.621962 29.7988 0.591962 29.7388 0.571962C29.4788 0.461962 29.1988 0.351962 28.9188 0.271962C28.8788 0.261962 28.8388 0.251962 28.7988 0.241962C28.6488 0.201962 28.4988 0.161962 28.3488 0.131962C28.2488 0.111962 28.1388 0.101962 28.0388 0.0919615C27.9488 0.0819615 27.8688 0.0619615 27.7788 0.0519615C27.4688 0.0219615 27.1588 -0.00803848 26.8388 0.00196152C26.8388 0.00196152 26.8288 0.00196152 26.8188 0.00196152C26.5188 0.00196152 26.2188 0.0319615 25.9088 0.0719615C25.8288 0.0719615 25.7488 0.0919615 25.6788 0.101962C25.5888 0.111962 25.5088 0.121962 25.4188 0.141962C25.2088 0.181962 24.9988 0.231962 24.7988 0.281962C24.7788 0.281962 24.7588 0.281962 24.7288 0.301962C24.4888 0.371962 24.2388 0.441961 23.9988 0.531962C23.9288 0.551962 23.8588 0.591962 23.7988 0.611962C23.7288 0.641962 23.6488 0.671962 23.5788 0.701962C23.2688 0.831962 22.9588 0.971961 22.6588 1.14196C22.5788 1.19196 22.4988 1.23196 22.4188 1.28196C22.3488 1.32196 22.2788 1.37196 22.2088 1.42196C22.1088 1.48196 22.0088 1.55196 21.9088 1.61196C21.8088 1.68196 21.6988 1.76196 21.5988 1.83196C21.5088 1.90196 21.4188 1.97196 21.3288 2.04196C21.2288 2.12196 21.1388 2.20196 21.0488 2.28196C20.9688 2.36196 20.8788 2.43196 20.7988 2.51196C20.7088 2.60196 20.6288 2.68196 20.5488 2.77196C20.4688 2.85196 20.3988 2.93196 20.3288 3.01196C20.2488 3.10196 20.1788 3.19196 20.0988 3.29196C20.0288 3.37196 19.9588 3.46196 19.8988 3.54196C19.8288 3.64196 19.7688 3.73196 19.6988 3.83196C19.6388 3.92196 19.5788 4.00196 19.5288 4.09196C19.4688 4.19196 19.4188 4.29196 19.3588 4.39196C19.3088 4.48196 19.2588 4.57196 19.2088 4.66196C19.1588 4.76196 19.1188 4.87196 19.0688 4.97196C19.0288 5.06196 18.9888 5.15196 18.9488 5.24196C18.9088 5.35196 18.8788 5.45196 18.8388 5.56196C18.8088 5.65196 18.7788 5.74196 18.7488 5.84196C18.7188 5.95196 18.6988 6.06196 18.6688 6.16196C18.6488 6.25196 18.6288 6.34196 18.6088 6.44196C18.5888 6.55196 18.5788 6.66196 18.5688 6.77196C18.5588 6.86196 18.5488 6.95196 18.5388 7.04196C18.5388 7.15196 18.5388 7.26196 18.5388 7.37196C18.5388 7.46196 18.5388 7.55196 18.5388 7.64196C18.5388 7.75196 18.5588 7.86196 18.5688 7.98196C18.5688 8.07196 18.5788 8.15196 18.5988 8.24196C18.6188 8.36196 18.6488 8.47196 18.6788 8.59196C18.6988 8.67196 18.7088 8.75196 18.7288 8.82196C18.7688 8.95196 18.8188 9.08196 18.8588 9.20196C18.8788 9.26196 18.8988 9.32196 18.9288 9.38196C19.0088 9.57196 19.1288 9.73196 19.1988 9.93196C19.7688 11.452 17.5388 12.752 17.2588 12.992C5.16885 23.462 4.57885 28.252 4.18885 29.502C2.90885 33.622 2.98885 36.392 4.24885 38.132C5.22885 39.482 7.43885 40.812 7.43885 40.812C7.05885 40.552 7.73885 40.772 7.75885 39.962C7.76885 39.352 7.80885 38.732 7.85885 38.122C7.87885 37.932 7.90885 37.732 7.93885 37.542C7.98885 37.122 8.02885 36.702 8.10885 36.292C8.14885 36.042 8.20885 35.802 8.25885 35.552C8.32885 35.192 8.39885 34.822 8.48885 34.462C8.54885 34.202 8.62885 33.952 8.69885 33.702C8.79885 33.352 8.87885 33.002 8.99885 32.652C9.07885 32.392 9.18885 32.132 9.27885 31.872C9.39885 31.532 9.50885 31.202 9.63885 30.862C9.74885 30.592 9.86885 30.332 9.98885 30.062C10.1288 29.742 10.2588 29.412 10.4088 29.092C10.5388 28.822 10.6788 28.562 10.8188 28.292C10.9788 27.982 11.1288 27.662 11.2988 27.362C11.4488 27.092 11.6188 26.832 11.7788 26.562C11.9588 26.262 12.1288 25.962 12.3188 25.672C12.4888 25.402 12.6788 25.142 12.8588 24.882C13.0588 24.592 13.2488 24.302 13.4588 24.012C13.6488 23.752 13.8488 23.502 14.0488 23.252C14.2688 22.972 14.4788 22.682 14.7088 22.402C14.9088 22.152 15.1388 21.912 15.3488 21.672C15.5888 21.392 15.8188 21.122 16.0788 20.852C16.2988 20.612 16.5388 20.382 16.7688 20.152C17.0288 19.892 17.2788 19.622 17.5488 19.362C17.7888 19.132 18.0488 18.912 18.2988 18.682C18.5788 18.432 18.8488 18.172 19.1388 17.932C19.3988 17.712 19.6688 17.502 19.9388 17.292C20.2388 17.052 20.5288 16.812 20.8288 16.582C21.1088 16.372 21.3988 16.172 21.6788 15.972C21.9888 15.752 22.2988 15.522 22.6188 15.302C22.9088 15.102 23.2188 14.922 23.5188 14.732C23.8688 14.512 24.1988 14.292 24.5588 14.082C24.1988 13.752 23.8788 13.352 23.6288 12.902C23.5288 12.722 23.4388 12.542 23.3588 12.352C23.3288 12.292 23.3188 12.232 23.2888 12.172C23.2388 12.042 23.1888 11.922 23.1588 11.792C23.1388 11.712 23.1288 11.632 23.1088 11.562C23.0788 11.442 23.0488 11.332 23.0288 11.212C23.0188 11.132 23.0088 11.042 22.9988 10.952C22.9888 10.842 22.9688 10.732 22.9688 10.612C22.9688 10.522 22.9688 10.432 22.9688 10.342C22.9688 10.232 22.9688 10.122 22.9688 10.012C22.9688 9.92196 22.9888 9.83196 22.9988 9.74196C23.0088 9.63196 23.0188 9.52196 23.0388 9.41196C23.0588 9.32196 23.0788 9.23196 23.0988 9.13196C23.1188 9.02196 23.1488 8.91196 23.1788 8.81196C23.2088 8.72196 23.2388 8.63196 23.2688 8.53196C23.2988 8.42196 23.3388 8.32196 23.3788 8.21196C23.4188 8.12196 23.4588 8.03196 23.4988 7.93196C23.5388 7.83196 23.5888 7.72196 23.6388 7.62196C23.6788 7.53196 23.7388 7.44196 23.7888 7.35196C23.8488 7.25196 23.8988 7.15196 23.9588 7.05196C24.0088 6.96196 24.0688 6.87196 24.1288 6.79196C24.1888 6.69196 24.2588 6.60196 24.3288 6.50196C24.3888 6.41196 24.4588 6.33196 24.5288 6.25196C24.5988 6.16196 24.6788 6.06196 24.7588 5.97196C24.8288 5.89196 24.9088 5.81196 24.9788 5.73196C25.0588 5.64196 25.1488 5.55196 25.2288 5.47196C25.3088 5.39196 25.3988 5.32196 25.4788 5.24196C25.5688 5.16196 25.6588 5.08196 25.7588 5.00196C25.8488 4.93196 25.9388 4.86196 26.0288 4.79196C26.1288 4.71196 26.2288 4.64196 26.3388 4.57196C26.4388 4.50196 26.5388 4.44196 26.6388 4.38196C26.7888 4.29196 26.9288 4.19196 27.0888 4.11196C27.3888 3.94196 27.6988 3.80196 28.0088 3.67196C28.0788 3.64196 28.1588 3.61196 28.2288 3.58196C28.5388 3.46196 28.8488 3.35196 29.1588 3.27196C29.1788 3.27196 29.2088 3.27196 29.2288 3.25196C29.5188 3.17196 29.8188 3.12196 30.1088 3.07196C30.1888 3.06196 30.2688 3.05196 30.3388 3.04196C30.6488 3.00196 30.9688 2.97196 31.2688 2.97196C31.5888 2.97196 31.8988 2.99196 32.2088 3.02196C32.2988 3.02196 32.3888 3.04196 32.4688 3.06196C32.7288 3.10196 32.9788 3.15196 33.2288 3.21196C33.2688 3.22196 33.3088 3.23196 33.3488 3.24196H33.3288Z" fill="url(#paint2_linear_1466_208)"/>
<path fill-rule="evenodd" clip-rule="evenodd" d="M44.2978 42.2019C46.4878 42.3019 46.1778 40.6919 45.5078 39.4719C42.3678 33.7219 39.3178 27.3219 38.0578 20.2119C37.9978 19.8719 38.1978 19.5419 38.5278 19.4019C45.6878 16.4019 52.8478 14.5619 59.4378 13.8519C61.1378 13.8019 62.5278 12.4419 60.5878 11.4019C53.9878 7.9819 45.8278 6.77191 37.7078 8.02191C36.9378 8.14191 36.1978 7.66191 36.1178 6.93191C36.0378 6.15191 35.7878 5.40191 35.3478 4.71191C33.5178 1.85191 29.1778 1.14191 25.5978 3.10191C22.0078 5.06191 20.4878 9.0119 22.2278 11.9419C22.6478 12.6619 22.4278 13.5819 21.7078 14.0419C12.1278 20.1819 6.52781 29.6619 6.50781 39.0919C6.50781 41.2519 8.44781 41.2919 9.31781 40.2219C12.4478 36.3819 16.4278 32.6419 21.0978 29.2019C21.4778 28.9219 22.0278 29.0319 22.2778 29.4219C27.9178 38.4219 34.9678 41.7819 44.2878 42.2119L44.2978 42.2019Z" fill="url(#paint3_linear_1466_208)"/>
<path style="mix-blend-mode:screen" d="M38.5578 19.302C45.7078 16.312 52.8578 14.472 59.4378 13.772C61.0578 13.722 62.3878 12.492 60.8478 11.482C54.4078 9.16195 40.7578 6.68195 23.4178 15.702C16.6078 19.242 12.2678 23.082 9.60781 26.872C7.59781 30.732 6.51781 34.872 6.50781 39.002C6.50781 41.162 8.44781 41.202 9.31781 40.132C12.4478 36.292 16.4278 32.552 21.0978 29.122C21.4778 28.842 22.0278 28.952 22.2778 29.342C24.7578 33.302 27.5178 36.172 30.6178 38.182C34.5478 36.572 37.7178 34.782 38.8978 33.372C39.7578 32.342 40.4978 31.382 41.1478 30.482C39.7978 27.222 38.6878 23.792 38.0478 20.172C37.9878 19.822 38.1878 19.462 38.5378 19.312L38.5578 19.302Z" fill="url(#paint4_linear_1466_208)"/>
<g style="mix-blend-mode:multiply">
<path style="mix-blend-mode:multiply" d="M65.4284 20.682C65.4284 20.682 65.4284 20.662 65.4284 20.652C65.4284 20.562 65.4584 20.472 65.4884 20.392C65.4884 20.372 65.5084 20.352 65.5184 20.332C65.5484 20.262 65.5884 20.192 65.6484 20.122C65.6484 20.112 65.6684 20.092 65.6784 20.082C65.7384 20.002 65.8184 19.932 65.8984 19.872C65.9184 19.852 65.9384 19.842 65.9684 19.832C66.0384 19.782 66.1084 19.752 66.1884 19.712C66.2284 19.692 66.2684 19.672 66.3184 19.652C66.4084 19.622 66.5084 19.592 66.6184 19.572C66.6484 19.572 66.6784 19.552 66.7084 19.552C66.8584 19.522 67.0184 19.512 67.1884 19.512C67.3884 19.512 67.6084 19.542 67.8384 19.592C68.0084 19.622 68.1784 19.662 68.3584 19.722C71.4784 20.752 74.3584 22.192 76.8884 23.992L72.5684 20.912C70.0384 19.112 67.1584 17.662 64.0384 16.642C63.8784 16.592 63.7284 16.552 63.5884 16.522C63.5684 16.522 63.5484 16.522 63.5184 16.522C63.2884 16.472 63.0684 16.442 62.8684 16.442C62.7084 16.442 62.5584 16.442 62.4184 16.472H62.3984C62.3684 16.472 62.3384 16.492 62.3084 16.492C62.2284 16.512 62.1484 16.522 62.0684 16.552C62.0484 16.552 62.0284 16.572 62.0084 16.582C61.9684 16.602 61.9284 16.622 61.8784 16.642C61.8384 16.662 61.7984 16.672 61.7584 16.692C61.7184 16.712 61.6884 16.742 61.6584 16.762C61.6384 16.772 61.6084 16.792 61.5884 16.802C61.4984 16.862 61.4284 16.932 61.3684 17.012C61.3584 17.022 61.3484 17.042 61.3384 17.052C61.2884 17.122 61.2484 17.192 61.2084 17.262C61.2084 17.282 61.1884 17.302 61.1784 17.322C61.1484 17.412 61.1184 17.492 61.1184 17.582C61.1184 17.582 61.1184 17.602 61.1184 17.612C61.1184 17.692 61.1184 17.772 61.1384 17.862C61.1384 17.882 61.1484 17.912 61.1584 17.932C61.1884 18.022 61.2184 18.112 61.2684 18.202C63.8784 22.402 64.7984 26.522 66.3684 32.212C67.5284 36.412 66.1084 36.582 64.0984 38.132C63.3084 38.742 59.3284 41.692 53.3284 46.942C50.5884 49.342 50.2884 51.702 50.8184 53.592C51.7484 56.912 53.3384 57.622 53.3384 57.622C53.4284 57.522 52.5184 56.892 52.7684 55.972C52.9084 55.542 53.0784 55.132 53.2584 54.722C53.3084 54.602 53.3684 54.482 53.4284 54.362C53.5784 54.052 53.7384 53.752 53.8984 53.452C53.9584 53.342 54.0184 53.232 54.0784 53.132C54.3084 52.742 54.5584 52.362 54.8184 51.982C54.8584 51.932 54.8984 51.882 54.9384 51.822C55.1684 51.492 55.4184 51.172 55.6784 50.862C55.7684 50.752 55.8584 50.642 55.9484 50.542C56.1884 50.262 56.4284 49.982 56.6884 49.712C56.7684 49.632 56.8384 49.542 56.9184 49.462C57.2484 49.122 57.5884 48.782 57.9384 48.452C58.0184 48.382 58.0884 48.312 58.1684 48.242C58.4584 47.982 58.7484 47.712 59.0484 47.462C59.1584 47.362 59.2684 47.272 59.3884 47.172C59.6984 46.912 60.0084 46.662 60.3284 46.412C60.3984 46.352 60.4784 46.292 60.5484 46.242C60.9384 45.942 61.3284 45.652 61.7284 45.362C61.8284 45.292 61.9384 45.212 62.0384 45.142C62.3484 44.922 62.6584 44.712 62.9684 44.492C63.0884 44.412 63.2084 44.322 63.3384 44.242C63.6984 44.002 64.0684 43.762 64.4284 43.532C64.4684 43.502 64.5184 43.472 64.5584 43.442C64.9584 43.192 65.3584 42.942 65.7584 42.712C66.0584 42.532 66.3684 42.352 66.6784 42.172C66.8384 42.072 67.0084 41.982 67.1684 41.882C67.4184 41.742 67.6584 41.602 67.8984 41.462C69.0084 40.842 71.3784 40.562 71.4184 40.532L71.5084 39.872C71.5584 39.532 71.5684 39.182 71.5384 38.832C70.9084 31.982 68.5584 26.062 65.5884 21.272C65.5384 21.182 65.4984 21.092 65.4784 21.002C65.4784 20.982 65.4684 20.952 65.4584 20.932C65.4384 20.852 65.4284 20.772 65.4384 20.682H65.4284Z" fill="url(#paint5_linear_1466_208)"/>
<path style="mix-blend-mode:multiply" d="M71.1558 55.182L66.2458 52.032C66.8658 52.702 66.9158 56.442 64.1258 63.142C63.4158 64.842 62.9358 65.382 62.4258 66.562C61.0258 69.782 65.5358 73.652 65.5358 73.652C64.8458 73.212 64.7858 72.142 65.3758 71.252C67.9658 66.302 70.2358 61.032 71.1558 55.202V55.182Z" fill="url(#paint6_linear_1466_208)"/>
<path style="mix-blend-mode:multiply" d="M86.9119 29.1421C87.1119 29.1721 87.3019 29.2021 87.4919 29.2421C87.5619 29.2521 87.6319 29.2721 87.7019 29.2821C87.9419 29.3421 88.1819 29.4021 88.4119 29.4721C88.4319 29.4721 88.4519 29.4921 88.4719 29.4921C88.6819 29.5621 88.8919 29.6421 89.0919 29.7321C89.1619 29.7621 89.2219 29.7921 89.2919 29.8221C89.4519 29.8921 89.6019 29.9721 89.7619 30.0521C89.8219 30.0821 89.8819 30.1221 89.9519 30.1521C90.1519 30.2721 90.3519 30.3921 90.5419 30.5321L86.2219 27.4521C86.0319 27.3221 85.8319 27.1921 85.6319 27.0721C85.5719 27.0321 85.5119 27.0021 85.4419 26.9721C85.2919 26.8921 85.1319 26.8121 84.9819 26.7421C84.9119 26.7121 84.8519 26.6821 84.7819 26.6521C84.5819 26.5621 84.3719 26.4921 84.1619 26.4221C84.1419 26.4221 84.1219 26.4021 84.1019 26.4021C83.8719 26.3321 83.6319 26.2621 83.3919 26.2121C83.3719 26.2121 83.3419 26.2021 83.3219 26.1921C83.2819 26.1921 83.2319 26.1821 83.1819 26.1721C82.9919 26.1321 82.8019 26.1021 82.6019 26.0721C82.5219 26.0721 82.4519 26.0521 82.3719 26.0421C82.1119 26.0121 81.8519 25.9921 81.5819 25.9921H81.5619C81.4019 25.9921 81.2319 25.9921 81.0719 25.9921C80.7219 26.0121 80.3819 26.0421 80.0519 26.1021C80.0019 26.1021 79.9619 26.1221 79.9119 26.1321C79.8519 26.1421 79.7919 26.1521 79.7319 26.1721C79.3719 26.2421 79.0219 26.3221 78.6719 26.4321L82.9919 29.5121C83.3319 29.4021 83.6919 29.3221 84.0519 29.2521C84.1119 29.2421 84.1719 29.2221 84.2319 29.2121C84.6119 29.1421 84.9919 29.1021 85.4019 29.0821C85.5719 29.0821 85.7519 29.0821 85.9219 29.0821C86.1919 29.0821 86.4519 29.1021 86.7119 29.1321C86.7919 29.1321 86.8619 29.1521 86.9419 29.1621L86.9119 29.1421Z" fill="url(#paint7_linear_1466_208)"/>
</g>
<path fill-rule="evenodd" clip-rule="evenodd" d="M52.7347 55.7621C55.0547 48.6921 63.4847 43.7321 69.8947 40.3921C70.7547 39.9421 71.2347 39.0521 71.1047 38.1521C70.1247 31.5021 67.8647 25.6621 64.7147 21.0121C64.0647 20.0421 65.1647 18.7021 67.4647 19.4021C72.9847 21.1021 77.8247 24.0421 81.4547 27.9121C82.1647 28.6621 83.2247 29.1021 84.2847 28.9421C84.5647 28.9021 84.8447 28.8721 85.1247 28.8521C89.5247 28.6021 93.2947 31.5221 93.5247 35.4421C93.7147 38.6321 91.4947 41.4921 88.2647 42.6021C88.3047 43.0421 88.3347 43.4721 88.3647 43.9021C88.9847 56.3321 80.4247 67.8921 67.5147 73.4921C65.0247 74.5421 64.2347 72.5721 65.2447 71.1121C67.6847 66.6721 69.2147 61.6521 70.5547 56.4621C70.9947 54.7521 69.9547 54.8821 69.0547 54.9721C64.0347 55.4821 59.1447 56.5221 55.1547 57.5621C53.8147 57.9221 52.1547 57.8421 52.7247 55.7521L52.7347 55.7621Z" fill="url(#paint8_linear_1466_208)"/>
<path style="mix-blend-mode:overlay" d="M83.769 46.492C85.939 31.952 70.699 24.602 64.719 21.012C67.869 25.662 70.129 31.512 71.109 38.162C71.239 39.062 70.759 39.942 69.909 40.382C63.499 43.722 55.049 48.682 52.729 55.752C52.639 56.092 52.609 56.382 52.619 56.622C53.529 56.932 54.389 57.242 55.189 57.552C59.429 56.442 64.539 55.362 69.879 54.892C70.289 54.852 70.729 55.522 70.669 55.902C70.379 57.862 67.819 66.422 65.239 71.112C64.239 72.572 65.019 74.532 67.509 73.492C68.509 73.062 69.479 72.582 70.429 72.082C76.479 66.732 81.949 58.642 83.759 46.492H83.769Z" fill="url(#paint9_linear_1466_208)"/>
<path style="mix-blend-mode:multiply" d="M11.7783 74.9119L12.1283 75.1319C5.98832 68.8419 3.66831 60.2419 5.45831 51.6719C5.49831 51.5119 5.54831 51.3619 5.59831 51.2219C5.61831 51.1819 5.63831 51.1419 5.65831 51.1019C5.69831 51.0119 5.73831 50.9219 5.78831 50.8419C5.80831 50.8019 5.83831 50.7619 5.85831 50.7319C5.90831 50.6619 5.95831 50.5919 6.01831 50.5319C6.04831 50.5019 6.06831 50.4719 6.09831 50.4519C6.17831 50.3819 6.25831 50.3119 6.33831 50.2619C6.33831 50.2619 6.34831 50.2519 6.35831 50.2419C6.43831 50.1919 6.52831 50.1419 6.61831 50.1119C6.69831 50.0819 6.78831 50.0519 6.86831 50.0319C6.90831 50.0319 6.94831 50.0319 6.97831 50.0219C7.02831 50.0219 7.07831 50.0019 7.12831 50.0019C7.27831 50.0019 7.42831 50.0219 7.57831 50.0519C7.61831 50.0519 7.65831 50.0719 7.68831 50.0819C7.83831 50.1319 7.97831 50.1819 8.11831 50.2719C8.11831 50.2719 8.87831 50.4719 5.28831 48.3219C4.22831 47.6919 2.98831 47.7319 2.21831 48.1019C0.878315 48.7519 0.598315 50.2419 0.558315 50.4119C-1.18169 58.7419 1.19831 65.4619 6.95831 71.6919C7.10831 71.8519 7.22831 72.0319 7.30831 72.2219C9.91831 78.1119 13.1683 82.1019 17.1483 84.7119L22.0783 87.7719C18.0283 85.1219 14.3983 80.9819 11.7583 74.9219L11.7783 74.9119Z" fill="url(#paint10_linear_1466_208)"/>
<path d="M51.0463 74.3219C52.0163 74.4519 52.9763 74.5519 53.9363 74.6319C54.1163 74.6519 54.2962 74.6619 54.4862 74.6819C55.4262 74.7519 56.3662 74.8119 57.2862 74.8419C57.4462 74.8419 57.6063 74.8419 57.7663 74.8519C58.7363 74.8819 60.7562 76.0819 60.6462 75.1919C60.5562 74.4019 57.7663 72.9719 57.7663 72.9719C56.6863 72.2619 55.4063 71.8719 54.0963 71.8419C53.7963 71.8419 53.4862 71.8319 53.1762 71.8219C53.0162 71.8219 52.8562 71.8219 52.6962 71.8119C51.7662 71.7819 50.8363 71.7219 49.8863 71.6519C49.7063 71.6419 49.5263 71.6219 49.3463 71.6019C48.3863 71.5219 47.4263 71.4119 46.4563 71.2919C46.3563 71.2819 46.2563 71.2619 46.1563 71.2519C45.2163 71.1219 44.2763 70.9719 43.3363 70.8119C43.1963 70.7919 43.0662 70.7619 42.9262 70.7419C42.3062 70.6319 41.6963 70.5019 41.0763 70.3719C40.9963 70.3519 40.9163 70.3419 40.8363 70.3219C40.1363 70.1719 39.4463 70.0119 38.7463 69.8319C38.5363 69.7819 38.3162 69.7219 38.1062 69.6619C37.6262 69.5419 37.1363 69.4119 36.6563 69.2719C36.3963 69.2019 36.1263 69.1219 35.8663 69.0419C35.4363 68.9119 34.9963 68.7819 34.5663 68.6519C34.2863 68.5619 34.0062 68.4719 33.7362 68.3819C33.3162 68.2419 32.8963 68.1019 32.4763 67.9519C32.1963 67.8519 31.9262 67.7619 31.6462 67.6619C31.2162 67.5119 30.7963 67.3519 30.3663 67.1819C30.1063 67.0819 29.8363 66.9819 29.5763 66.8719C29.1163 66.6919 28.6563 66.5019 28.1963 66.3019C27.9763 66.2119 27.7563 66.1219 27.5363 66.0219C26.8563 65.7319 26.1863 65.4219 25.5163 65.1119C24.6263 64.6919 23.7462 64.2519 22.9062 63.8019L27.4862 66.8219C28.3262 67.2719 29.1963 67.7019 30.0963 68.1319C30.7663 68.4519 31.4363 68.7519 32.1163 69.0419C32.3363 69.1419 32.5563 69.2319 32.7763 69.3219C33.2363 69.5119 33.6963 69.7019 34.1563 69.8919C34.4163 69.9919 34.6862 70.0919 34.9462 70.2019C35.3662 70.3619 35.7962 70.5219 36.2162 70.6819C36.4962 70.7819 36.7663 70.8819 37.0463 70.9719C37.4663 71.1219 37.8862 71.2619 38.3062 71.4019C38.5862 71.4919 38.8563 71.5819 39.1363 71.6719C39.5663 71.8119 40.0063 71.9319 40.4363 72.0619C40.6963 72.1419 40.9663 72.2219 41.2263 72.2919C41.7063 72.4319 42.1862 72.5519 42.6762 72.6819C42.8862 72.7419 43.1063 72.7919 43.3163 72.8519C44.0163 73.0219 44.7063 73.1919 45.4063 73.3419C45.4863 73.3619 45.5662 73.3719 45.6462 73.3919C46.2662 73.5219 46.8763 73.6419 47.4963 73.7619C47.5463 73.7619 47.5962 73.7819 47.6462 73.7919C47.7362 73.8119 47.8163 73.8219 47.9063 73.8319C48.8463 74.0019 49.7863 74.1519 50.7263 74.2719C50.8263 74.2819 50.9263 74.3019 51.0263 74.3119L51.0463 74.3219Z" fill="url(#paint11_linear_1466_208)"/>
<path d="M10.3359 55.172L14.9159 58.192C15.1359 57.882 15.3659 57.592 15.6159 57.312C15.6959 57.222 15.7859 57.142 15.8659 57.052C16.0359 56.872 16.2159 56.692 16.4059 56.522C16.5159 56.432 16.6259 56.342 16.7359 56.252C16.9159 56.102 17.0959 55.962 17.2759 55.832C17.3959 55.742 17.5159 55.662 17.6359 55.582C17.8259 55.452 18.0259 55.342 18.2259 55.222C18.3459 55.162 18.4559 55.092 18.5759 55.032C18.7959 54.922 19.0259 54.812 19.2559 54.722C19.3559 54.682 19.4559 54.632 19.5559 54.592C19.8759 54.472 20.1959 54.362 20.5159 54.282C20.5859 54.262 20.6659 54.252 20.7359 54.232C20.9959 54.162 21.2659 54.112 21.5359 54.072C21.6259 54.062 21.7159 54.042 21.8059 54.032C22.1359 53.992 22.4759 53.952 22.8059 53.952C23.1059 53.952 23.4159 53.952 23.7159 53.982C23.8159 53.982 23.9159 54.012 24.0059 54.022C24.2059 54.042 24.3959 54.072 24.5959 54.112C24.8159 54.152 25.0259 54.212 25.2359 54.272C25.3459 54.302 25.4459 54.322 25.5559 54.362C25.8659 54.462 26.1759 54.582 26.4759 54.732C26.7659 54.872 26.9459 55.072 27.2059 55.242C27.2059 55.242 25.7459 53.952 23.7459 52.702C21.7459 51.452 21.2759 51.442 20.9659 51.342C20.8659 51.312 20.7559 51.282 20.6459 51.252C20.4359 51.192 20.2159 51.132 20.0059 51.092C19.9759 51.092 19.9459 51.072 19.9259 51.072C19.7559 51.042 19.5859 51.022 19.4259 51.002C19.3259 50.992 19.2359 50.972 19.1359 50.962C18.8359 50.932 18.5359 50.922 18.2259 50.932H18.2059C17.8759 50.932 17.5559 50.972 17.2259 51.012C17.1359 51.022 17.0459 51.042 16.9559 51.052C16.8459 51.072 16.7459 51.082 16.6359 51.102C16.4759 51.132 16.3159 51.172 16.1559 51.212C16.0859 51.232 16.0059 51.242 15.9359 51.262C15.6359 51.342 15.3459 51.432 15.0559 51.542C15.0259 51.552 15.0059 51.562 14.9759 51.572C14.8759 51.612 14.7759 51.662 14.6759 51.702C14.4459 51.802 14.2159 51.902 13.9959 52.012C13.8759 52.072 13.7659 52.132 13.6459 52.202C13.5359 52.262 13.4159 52.322 13.3159 52.382C13.2259 52.432 13.1459 52.502 13.0659 52.552C12.9459 52.632 12.8259 52.712 12.7059 52.802C12.5159 52.932 12.3359 53.072 12.1659 53.222C12.0559 53.312 11.9459 53.402 11.8459 53.492C11.6559 53.662 11.4859 53.842 11.3059 54.022C11.2259 54.112 11.1359 54.192 11.0559 54.282C10.8059 54.562 10.5759 54.852 10.3559 55.162L10.3359 55.172Z" fill="url(#paint12_linear_1466_208)"/>
<path fill-rule="evenodd" clip-rule="evenodd" d="M27.8874 64.182C30.4074 60.462 29.3174 55.932 25.5174 54.042C21.9374 52.252 17.1474 53.452 14.4774 56.742C14.2874 56.982 13.9174 57.012 13.6974 56.802C11.6574 54.822 9.90742 52.762 8.48742 50.672C7.81742 49.392 5.74742 49.142 5.21742 51.272C3.29742 59.602 5.42742 68.132 11.3474 74.552C11.3774 74.582 11.4074 74.622 11.4274 74.672C16.3174 85.882 23.3874 90.392 33.3974 91.742C35.5774 92.022 35.4074 90.402 34.8474 89.122C34.2374 87.752 33.5974 86.482 32.9574 85.262C32.7874 84.932 33.0574 84.562 33.4474 84.592C42.4274 85.242 51.7274 82.782 59.3174 77.712C61.6174 76.162 60.6874 74.452 59.1174 74.452C49.3974 74.432 38.7374 72.042 28.9274 67.262C28.2474 66.932 27.5774 66.592 26.9174 66.242C26.6274 66.092 26.5874 65.722 26.8174 65.492C27.2074 65.092 27.5674 64.662 27.8874 64.182V64.182Z" fill="url(#paint13_linear_1466_208)"/>
<path style="mix-blend-mode:multiply" opacity="0.64" d="M11.3954 74.6019C16.2854 85.8619 23.3654 90.3819 33.3954 91.7419C35.5754 92.0219 35.4054 90.4019 34.8454 89.1219C34.2554 87.7819 33.6254 86.5319 32.9954 85.3419C32.8054 84.9719 33.1054 84.5619 33.5354 84.5919C40.9154 85.1119 48.5054 83.5219 55.1854 80.1119C52.4154 79.9819 49.4054 80.0419 46.8854 79.3319C10.9854 69.2119 5.13544 62.7219 5.32544 50.9219C5.28544 51.0319 5.24544 51.1419 5.21544 51.2719C3.29544 59.6219 5.43544 68.1819 11.3954 74.6019Z" fill="url(#paint14_linear_1466_208)"/>
<path d="M122.068 63.6319C123.81 63.6319 125.504 63.4545 127.133 63.1158C128.762 62.7609 130.197 62.1964 131.439 61.4382C132.681 60.664 133.682 59.6639 134.44 58.4381C135.182 57.2122 135.569 55.7282 135.569 54.0023C135.569 52.7764 135.391 51.7118 135.004 50.8085C134.633 49.9214 134.101 49.131 133.407 48.4697C132.714 47.8083 131.875 47.2276 130.907 46.7276C129.939 46.2276 128.859 45.7759 127.665 45.3566C126.988 45.1307 126.326 44.9049 125.649 44.6791C124.971 44.4694 124.358 44.2113 123.81 43.9371C123.245 43.6629 122.81 43.3403 122.471 42.9532C122.132 42.5661 121.955 42.1144 121.955 41.5821C121.955 41.1789 122.068 40.824 122.294 40.5175C122.52 40.1949 122.842 39.953 123.245 39.7433C123.649 39.5497 124.1 39.3884 124.633 39.2916C125.149 39.1949 125.713 39.1303 126.31 39.1303C127.552 39.1303 128.843 39.2916 130.149 39.6304C131.439 39.9691 132.665 40.4691 133.811 41.1305V34.1784C132.52 33.7913 131.197 33.5009 129.875 33.3074C128.552 33.0977 127.229 33.0009 125.939 33.0009C124.278 33.0009 122.681 33.1783 121.165 33.5332C119.632 33.8719 118.277 34.4365 117.084 35.1785C115.89 35.9366 114.938 36.9044 114.229 38.0658C113.519 39.2433 113.164 40.6466 113.164 42.2918C113.164 43.4855 113.325 44.5339 113.632 45.4049C113.954 46.276 114.406 47.0502 115.003 47.7115C115.6 48.389 116.342 48.9697 117.229 49.4697C118.116 49.9698 119.132 50.4537 120.294 50.8892C121.003 51.1634 121.761 51.4376 122.536 51.6473C123.31 51.8731 124.036 52.1312 124.697 52.4215C125.358 52.7119 125.891 53.0345 126.31 53.4216C126.729 53.8087 126.923 54.2765 126.923 54.841C126.923 55.7282 126.471 56.4057 125.536 56.8412C124.616 57.2767 123.358 57.5025 121.761 57.5025C120.455 57.5025 119.068 57.2928 117.584 56.8412C116.116 56.4057 114.632 55.7443 113.164 54.841V62.148C115.89 63.1319 118.874 63.6319 122.084 63.6319H122.068ZM159.796 19.5807C158.57 19.1936 157.054 19 155.231 19C151.505 19 148.553 20.0162 146.392 22.0486C144.214 24.081 143.134 26.7586 143.134 30.0975V33.7268H138.23V40.3724H143.134V62.9222H152.118V40.3724H158.796V33.7268H152.118V30.6137C152.118 27.4844 153.57 25.9037 156.457 25.9037C157.522 25.9037 158.635 26.1295 159.796 26.5973V19.5807V19.5807ZM189.379 47.0986C189.379 42.7596 188.201 39.3239 185.878 36.8076C183.54 34.2752 180.249 33.017 175.991 33.017C171.732 33.017 168.426 34.4365 165.603 37.2593C162.796 40.0981 161.393 43.921 161.393 48.7761C161.393 53.6313 162.683 57.0993 165.296 59.7123C167.893 62.3254 171.555 63.6319 176.281 63.6319C180.588 63.6319 184.104 62.9061 186.798 61.4705V54.9701C184.362 56.4863 181.539 57.2444 178.33 57.2444C173.297 57.2444 170.619 55.1153 170.313 50.8892H189.363V47.0986H189.379ZM170.265 45.3566C170.49 43.5661 171.136 42.0822 172.184 40.8724C173.232 39.6788 174.491 39.082 175.926 39.082C179.314 39.082 181.007 41.1789 181.007 45.3566H170.265V45.3566ZM213.784 33.5493C213.251 33.3235 212.509 33.2106 211.558 33.2106C207.864 33.2106 205.299 35.1946 203.864 39.1465H203.751V33.7268H194.734V62.9222H203.751V48.9858C203.751 46.5179 204.299 44.5662 205.396 43.1306C206.509 41.695 208.025 40.9692 209.993 40.9692C211.445 40.9692 212.703 41.2595 213.784 41.8563V33.5655V33.5493ZM242.269 45.4695C242.269 37.1625 238.108 33.0009 229.785 33.0009C227.994 33.0009 226.01 33.2429 223.833 33.7429C221.655 34.2429 219.945 34.8075 218.687 35.4527V42.2435C221.816 40.1627 225.139 39.1303 228.607 39.1303C232.075 39.1303 233.801 40.7272 233.801 43.921L225.865 44.9856C219.155 45.8566 215.8 49.131 215.8 54.7927C215.8 57.4703 216.606 59.6156 218.235 61.2124C219.865 62.8254 222.091 63.6319 224.929 63.6319C228.768 63.6319 231.672 62.0028 233.624 58.7284H233.736V62.9222H242.269V45.4695V45.4695ZM232.204 55.4863C231.14 56.6637 229.752 57.2444 228.075 57.2444C226.849 57.2444 225.897 56.9218 225.187 56.2605C224.462 55.5992 224.123 54.7604 224.123 53.7281C224.123 51.4699 225.575 50.1472 228.51 49.7601L233.817 49.0826V51.0505C233.817 52.8409 233.285 54.3088 232.22 55.4863H232.204ZM257.335 62.3093C258.335 61.4221 258.835 60.293 258.835 58.9058C258.835 57.5186 258.335 56.4379 257.367 55.5508C256.383 54.6797 255.125 54.2281 253.593 54.2281C252.06 54.2281 250.786 54.6636 249.786 55.5346C248.77 56.4057 248.27 57.5348 248.27 58.9058C248.27 60.2769 248.77 61.3576 249.754 62.2609C250.754 63.1803 251.98 63.6319 253.464 63.6319C255.06 63.6319 256.367 63.1964 257.367 62.3093H257.335ZM284.272 19.5807C283.046 19.1936 281.53 19 279.707 19C275.981 19 273.029 20.0162 270.868 22.0486C268.706 24.081 267.626 26.7586 267.626 30.0975V33.7268H262.722V40.3724H267.626V62.9222H276.61V40.3724H283.272V33.7268H276.61V30.6137C276.61 27.4844 278.046 25.9037 280.949 25.9037C282.014 25.9037 283.127 26.1295 284.288 26.5973V19.5807H284.272ZM333.985 44.7597C333.985 36.9205 330.807 33.0009 324.468 33.0009C320.145 33.0009 316.887 34.8236 314.661 38.4529C313.145 34.8236 310.322 33.0009 306.193 33.0009C304.193 33.0009 302.354 33.4848 300.676 34.4688C298.999 35.4527 297.676 36.7108 296.757 38.2916H296.644V33.7268H287.627V62.9222H296.644V46.6954C296.644 44.5984 297.095 42.9532 298.031 41.7273C298.95 40.5175 300.192 39.9046 301.725 39.9046C304.789 39.9046 306.306 41.9692 306.306 46.0985V62.9222H315.322V46.5824C315.322 44.6791 315.79 43.0983 316.726 41.8079C317.661 40.5337 318.855 39.8885 320.339 39.8885C323.452 39.8885 325.017 42.0176 325.017 46.2437V62.9061H334.001V44.7597H333.985Z" fill="#1D1D1B"/>
<path d="M84.8552 77.7295C84.5487 77.5521 84.21 77.4715 83.8229 77.4715C82.7422 77.4715 82.1938 78.1489 82.1938 79.52V81.0201H84.4681V82.3427H82.1938V90.6981H80.6453V82.3427H79V81.0201H80.6614V79.4555C80.6614 78.4393 80.9517 77.6328 81.5324 77.0521C82.1131 76.4714 82.8551 76.1649 83.7261 76.1649C84.1939 76.1649 84.581 76.2294 84.8552 76.3423V77.7457V77.7295Z" fill="#1D1D1B"/>
<path d="M95.7954 90.9241C94.3598 90.9241 93.2307 90.4725 92.3758 89.5692C91.5209 88.6659 91.1016 87.4723 91.1016 85.9722C91.1016 84.3431 91.5532 83.0849 92.4404 82.1655C93.3275 81.2461 94.5211 80.7944 96.0374 80.7944C97.5536 80.7944 98.6021 81.2461 99.4086 82.1332C100.215 83.0204 100.618 84.2463 100.618 85.827C100.618 87.4078 100.183 88.6014 99.3118 89.5369C98.4408 90.4725 97.2633 90.9241 95.7954 90.9241V90.9241ZM95.9083 82.101C94.9083 82.101 94.1179 82.4397 93.5533 83.1172C92.9888 83.7946 92.6823 84.7302 92.6823 85.9238C92.6823 87.1174 92.9727 87.9723 93.5533 88.6336C94.134 89.295 94.9244 89.6337 95.9083 89.6337C96.8923 89.6337 97.6826 89.3111 98.2149 88.6659C98.7472 88.0207 99.0214 87.1013 99.0214 85.8915C99.0214 84.6818 98.7472 83.7462 98.2149 83.101C97.6826 82.4558 96.9084 82.1171 95.9083 82.1171V82.101Z" fill="#1D1D1B"/>
<path d="M112.741 90.9241C111.305 90.9241 110.176 90.4725 109.321 89.5692C108.466 88.6659 108.047 87.4723 108.047 85.9722C108.047 84.3431 108.499 83.0849 109.386 82.1655C110.273 81.2461 111.466 80.7944 112.983 80.7944C114.499 80.7944 115.547 81.2461 116.354 82.1332C117.16 83.0204 117.564 84.2463 117.564 85.827C117.564 87.4078 117.128 88.6014 116.257 89.5369C115.386 90.4725 114.209 90.9241 112.741 90.9241V90.9241ZM112.854 82.101C111.854 82.101 111.063 82.4397 110.499 83.1172C109.934 83.7946 109.628 84.7302 109.628 85.9238C109.628 87.1174 109.918 87.9723 110.499 88.6336C111.079 89.295 111.87 89.6337 112.854 89.6337C113.838 89.6337 114.628 89.3111 115.16 88.6659C115.693 88.0207 115.967 87.1013 115.967 85.8915C115.967 84.6818 115.693 83.7462 115.16 83.101C114.628 82.4558 113.854 82.1171 112.854 82.1171V82.101Z" fill="#1D1D1B"/>
<path d="M133.904 90.6981H132.356V89.0529H132.324C131.598 90.2949 130.501 90.924 129.001 90.924C127.791 90.924 126.807 90.4885 126.081 89.6174C125.355 88.7464 124.984 87.5689 124.984 86.0849C124.984 84.4881 125.388 83.1977 126.194 82.246C127.001 81.2943 128.081 80.7943 129.42 80.7943C130.759 80.7943 131.711 81.3104 132.324 82.3589H132.356V76.3746H133.904V90.6981V90.6981ZM132.356 86.3269V84.9074C132.356 84.1332 132.098 83.4719 131.582 82.9235C131.065 82.375 130.404 82.1169 129.614 82.1169C128.662 82.1169 127.92 82.4557 127.388 83.1493C126.855 83.8429 126.581 84.7945 126.581 86.0204C126.581 87.1334 126.839 88.0206 127.355 88.6658C127.872 89.311 128.565 89.6336 129.452 89.6336C130.34 89.6336 131.017 89.3271 131.549 88.698C132.082 88.0689 132.356 87.2786 132.356 86.343V86.3269Z" fill="#1D1D1B"/>
<path d="M167.305 90.6982H165.757V85.1333C165.757 84.0687 165.596 83.2945 165.257 82.8106C164.918 82.3267 164.37 82.0847 163.595 82.0847C162.934 82.0847 162.37 82.3912 161.902 82.988C161.434 83.5848 161.208 84.3107 161.208 85.1656V90.6821H159.66V84.9398C159.66 83.0364 158.918 82.0847 157.45 82.0847C156.772 82.0847 156.208 82.3751 155.772 82.9396C155.337 83.5042 155.111 84.2462 155.111 85.1656V90.6821H153.562V81.004H155.111V82.5364H155.143C155.837 81.3589 156.837 80.7782 158.143 80.7782C158.805 80.7782 159.385 80.9556 159.869 81.3266C160.353 81.6976 160.692 82.1815 160.886 82.7783C161.611 81.4395 162.676 80.7782 164.095 80.7782C166.225 80.7782 167.289 82.0847 167.289 84.7139V90.6821L167.305 90.6982Z" fill="#1D1D1B"/>
<path d="M182.771 90.6982H181.222V89.1819H181.19C180.512 90.3433 179.529 90.924 178.206 90.924C177.238 90.924 176.48 90.6659 175.948 90.1659C175.415 89.6658 175.125 88.9722 175.125 88.1335C175.125 86.3269 176.19 85.2785 178.319 84.972L181.222 84.5687C181.222 82.9235 180.561 82.1008 179.222 82.1008C178.061 82.1008 176.996 82.5041 176.061 83.2945V81.7137C177.012 81.1008 178.109 80.8104 179.351 80.8104C181.625 80.8104 182.771 82.0202 182.771 84.4236V90.7143V90.6982ZM181.222 85.7946L178.883 86.1172C178.157 86.214 177.625 86.3914 177.254 86.6495C176.883 86.9076 176.706 87.3592 176.706 88.0044C176.706 88.4722 176.867 88.8593 177.206 89.1658C177.545 89.4723 177.996 89.6174 178.545 89.6174C179.319 89.6174 179.948 89.3432 180.448 88.8109C180.948 88.2787 181.206 87.5851 181.206 86.7624V85.7946H181.222Z" fill="#1D1D1B"/>
<path d="M196.346 82.6009C196.071 82.3912 195.684 82.2944 195.168 82.2944C194.507 82.2944 193.958 82.6009 193.507 83.23C193.055 83.8591 192.845 84.6978 192.845 85.7785V90.7143H191.297V81.0363H192.845V83.0364H192.878C193.103 82.359 193.442 81.8267 193.894 81.4396C194.345 81.0524 194.862 80.875 195.41 80.875C195.813 80.875 196.12 80.9234 196.329 81.004V82.617L196.346 82.6009Z" fill="#1D1D1B"/>
<path d="M211.689 90.6981H209.511L205.237 86.0527H205.205V90.6981H203.656V76.3746H205.205V85.4559H205.237L209.302 81.0201H211.334L206.85 85.6817L211.689 90.6981Z" fill="#1D1D1B"/>
<path d="M226.249 86.2463H219.41C219.442 87.327 219.732 88.1497 220.281 88.7465C220.829 89.3433 221.604 89.6175 222.571 89.6175C223.668 89.6175 224.668 89.2626 225.572 88.5368V89.9885C224.717 90.6014 223.604 90.9079 222.2 90.9079C220.797 90.9079 219.765 90.4724 218.974 89.5852C218.184 88.6981 217.797 87.4722 217.797 85.8753C217.797 84.3752 218.216 83.1493 219.071 82.1976C219.926 81.246 220.991 80.7782 222.249 80.7782C223.507 80.7782 224.491 81.1815 225.184 82.0041C225.878 82.8267 226.217 83.9558 226.217 85.4237V86.2302L226.249 86.2463ZM224.668 84.9398C224.668 84.0526 224.442 83.3429 224.023 82.859C223.604 82.3751 223.007 82.117 222.249 82.117C221.491 82.117 220.894 82.3751 220.394 82.9074C219.894 83.4397 219.571 84.1171 219.442 84.9559H224.668V84.9398Z" fill="#1D1D1B"/>
<path d="M238.701 90.6177C238.33 90.8113 237.846 90.9242 237.249 90.9242C235.555 90.9242 234.7 89.9725 234.7 88.0853V82.3591H233.039V81.0364H234.7V78.6814L236.249 78.1814V81.0526H238.685V82.3752H236.249V87.8272C236.249 88.4724 236.362 88.9402 236.588 89.2144C236.813 89.4886 237.168 89.6338 237.685 89.6338C238.072 89.6338 238.41 89.5208 238.701 89.3112V90.6338V90.6177Z" fill="#1D1D1B"/>
<path d="M265.329 90.6983H263.781V85.1818C263.781 83.1333 263.039 82.101 261.539 82.101C260.764 82.101 260.119 82.3913 259.619 82.972C259.119 83.5527 258.861 84.2947 258.861 85.1818V90.6983H257.312V81.0203H258.861V82.6333H258.893C259.619 81.4074 260.684 80.7944 262.071 80.7944C263.135 80.7944 263.942 81.1332 264.507 81.8268C265.071 82.5204 265.345 83.5043 265.345 84.7947V90.7144L265.329 90.6983Z" fill="#1D1D1B"/>
<path d="M281.64 86.2463H274.801C274.833 87.327 275.123 88.1497 275.672 88.7465C276.22 89.3433 276.994 89.6175 277.962 89.6175C279.059 89.6175 280.059 89.2626 280.962 88.5368V89.9885C280.107 90.6014 278.994 90.9079 277.591 90.9079C276.188 90.9079 275.155 90.4724 274.365 89.5852C273.575 88.6981 273.188 87.4722 273.188 85.8753C273.188 84.3752 273.607 83.1493 274.462 82.1976C275.317 81.246 276.381 80.7782 277.639 80.7782C278.898 80.7782 279.881 81.1815 280.575 82.0041C281.269 82.8267 281.607 83.9558 281.607 85.4237V86.2302L281.64 86.2463ZM280.059 84.9398C280.059 84.0526 279.833 83.3429 279.414 82.859C278.994 82.3751 278.398 82.117 277.639 82.117C276.881 82.117 276.284 82.3751 275.784 82.9074C275.284 83.4397 274.962 84.1171 274.833 84.9559H280.059V84.9398Z" fill="#1D1D1B"/>
<path d="M301.783 81.0203L298.88 90.6983H297.267L295.267 83.7785C295.186 83.5204 295.138 83.214 295.121 82.8752H295.089C295.073 83.101 295.009 83.3914 294.896 83.7462L292.734 90.6983H291.186L288.25 81.0203H289.879L291.879 88.2949C291.944 88.5207 291.992 88.8111 292.008 89.166H292.089C292.105 88.8917 292.17 88.5853 292.266 88.2788L294.492 81.0203H295.912L297.912 88.3111C297.976 88.5369 298.025 88.8272 298.057 89.1821H298.138C298.138 88.9401 298.202 88.6498 298.299 88.3111L300.267 81.0203H301.799H301.783Z" fill="#1D1D1B"/>
<path d="M308.617 90.3594V88.698C309.456 89.3271 310.391 89.6336 311.408 89.6336C312.763 89.6336 313.456 89.1819 313.456 88.2786C313.456 88.0206 313.392 87.7947 313.279 87.6173C313.166 87.4399 313.005 87.2786 312.811 87.1334C312.617 86.9882 312.375 86.8753 312.117 86.7624C311.859 86.6495 311.569 86.5366 311.246 86.4237C310.811 86.2462 310.44 86.0849 310.117 85.9075C309.795 85.7301 309.52 85.5365 309.311 85.3268C309.101 85.1171 308.924 84.8591 308.827 84.5848C308.73 84.3106 308.666 83.988 308.666 83.617C308.666 83.1654 308.762 82.7621 308.972 82.4073C309.182 82.0524 309.456 81.7621 309.811 81.5363C310.166 81.3104 310.553 81.1169 311.004 81.004C311.456 80.8911 311.908 80.8265 312.375 80.8265C313.214 80.8265 313.956 80.9717 314.618 81.262V82.8267C313.908 82.3589 313.085 82.1331 312.166 82.1331C311.875 82.1331 311.617 82.1653 311.375 82.2299C311.133 82.2944 310.94 82.3912 310.779 82.5041C310.617 82.617 310.488 82.7621 310.391 82.9396C310.295 83.117 310.262 83.2944 310.262 83.488C310.262 83.7461 310.311 83.9558 310.391 84.1171C310.472 84.2784 310.617 84.4397 310.795 84.5687C310.972 84.6978 311.182 84.8268 311.44 84.9236C311.698 85.0204 311.972 85.1494 312.295 85.2784C312.73 85.4397 313.101 85.6172 313.44 85.7785C313.779 85.9398 314.069 86.1495 314.311 86.3592C314.553 86.5688 314.73 86.8269 314.86 87.1173C314.989 87.4076 315.053 87.7302 315.053 88.1335C315.053 88.6174 314.94 89.0206 314.73 89.3755C314.521 89.7303 314.23 90.0207 313.892 90.2465C313.553 90.4723 313.134 90.6498 312.666 90.7627C312.198 90.8756 311.73 90.9401 311.214 90.9401C310.214 90.9401 309.359 90.7465 308.617 90.3594V90.3594Z" fill="#1D1D1B"/>
<defs>
<linearGradient id="paint0_linear_1466_208" x1="24.8291" y1="26.522" x2="24.8291" y2="38.672" gradientUnits="userSpaceOnUse">
<stop stop-color="#2C0D0F"/>
<stop offset="1" stop-color="#D13686" stop-opacity="0"/>
</linearGradient>
<linearGradient id="paint1_linear_1466_208" x1="52.9016" y1="3.48206" x2="41.5316" y2="14.8421" gradientUnits="userSpaceOnUse">
<stop stop-color="#A61D7E" stop-opacity="0"/>
<stop offset="0.1" stop-color="#A61D7E" stop-opacity="0.03"/>
<stop offset="0.23" stop-color="#A61D7E" stop-opacity="0.13"/>
<stop offset="0.37" stop-color="#A61D7E" stop-opacity="0.28"/>
<stop offset="0.53" stop-color="#A61D7E" stop-opacity="0.5"/>
<stop offset="0.69" stop-color="#A61D7E" stop-opacity="0.77"/>
<stop offset="0.8" stop-color="#A61D7E"/>
</linearGradient>
<linearGradient id="paint2_linear_1466_208" x1="33.2988" y1="2.48196" x2="0.898845" y2="34.882" gradientUnits="userSpaceOnUse">
<stop offset="0.2" stop-color="#A61D7E"/>
<stop offset="0.25" stop-color="#AC1E74" stop-opacity="0.9"/>
<stop offset="0.42" stop-color="#C02159" stop-opacity="0.62"/>
<stop offset="0.59" stop-color="#D02444" stop-opacity="0.39"/>
<stop offset="0.75" stop-color="#DB2635" stop-opacity="0.23"/>
<stop offset="0.89" stop-color="#E2272C" stop-opacity="0.13"/>
<stop offset="1" stop-color="#E52829" stop-opacity="0.1"/>
</linearGradient>
<linearGradient id="paint3_linear_1466_208" x1="6.50781" y1="22.1019" x2="61.5278" y2="22.1019" gradientUnits="userSpaceOnUse">
<stop stop-color="#D11317"/>
<stop offset="0.57" stop-color="#AFA8D3"/>
</linearGradient>
<linearGradient id="paint4_linear_1466_208" x1="45.6019" y1="2.28672" x2="24.2904" y2="39.2116" gradientUnits="userSpaceOnUse">
<stop offset="0.21" stop-color="#68529E"/>
<stop offset="1" stop-color="#D11317"/>
</linearGradient>
<linearGradient id="paint5_linear_1466_208" x1="50.6184" y1="56.052" x2="71.3884" y2="20.082" gradientUnits="userSpaceOnUse">
<stop offset="0.2" stop-color="#A61D7E"/>
<stop offset="0.38" stop-color="#B21F6D" stop-opacity="0.8"/>
<stop offset="0.77" stop-color="#D12442" stop-opacity="0.3"/>
<stop offset="1" stop-color="#E52829" stop-opacity="0"/>
</linearGradient>
<linearGradient id="paint6_linear_1466_208" x1="61.1158" y1="71.092" x2="70.6558" y2="54.572" gradientUnits="userSpaceOnUse">
<stop offset="0.2" stop-color="#A61D7E" stop-opacity="0.2"/>
<stop offset="0.23" stop-color="#A91D78" stop-opacity="0.25"/>
<stop offset="0.38" stop-color="#BB2060" stop-opacity="0.48"/>
<stop offset="0.52" stop-color="#CA234C" stop-opacity="0.66"/>
<stop offset="0.66" stop-color="#D6253D" stop-opacity="0.81"/>
<stop offset="0.79" stop-color="#DE2632" stop-opacity="0.91"/>
<stop offset="0.91" stop-color="#E3272B" stop-opacity="0.98"/>
<stop offset="1" stop-color="#E52829"/>
</linearGradient>
<linearGradient id="paint7_linear_1466_208" x1="78.6519" y1="28.2521" x2="90.5319" y2="28.2521" gradientUnits="userSpaceOnUse">
<stop offset="0.2" stop-color="#A61D7E"/>
<stop offset="0.42" stop-color="#C0215A"/>
<stop offset="0.65" stop-color="#D4253F"/>
<stop offset="0.85" stop-color="#E0272E"/>
<stop offset="1" stop-color="#E52829"/>
</linearGradient>
<linearGradient id="paint8_linear_1466_208" x1="52.6147" y1="46.4921" x2="93.5447" y2="46.4921" gradientUnits="userSpaceOnUse">
<stop stop-color="#E41A1C"/>
<stop offset="1" stop-color="#FEC605"/>
</linearGradient>
<linearGradient id="paint9_linear_1466_208" x1="79.2945" y1="68.6575" x2="60.0213" y2="32.4952" gradientUnits="userSpaceOnUse">
<stop stop-color="#94D2DB"/>
<stop offset="1" stop-color="#405FA9"/>
</linearGradient>
<linearGradient id="paint10_linear_1466_208" x1="0.00831468" y1="67.7919" x2="22.0983" y2="67.7919" gradientUnits="userSpaceOnUse">
<stop stop-color="#E4272A" stop-opacity="0.02"/>
<stop offset="0.07" stop-color="#DD2037" stop-opacity="0.25"/>
<stop offset="0.14" stop-color="#D71A43" stop-opacity="0.45"/>
<stop offset="0.21" stop-color="#D2154D" stop-opacity="0.62"/>
<stop offset="0.29" stop-color="#CE1155" stop-opacity="0.76"/>
<stop offset="0.37" stop-color="#CA0D5C" stop-opacity="0.87"/>
<stop offset="0.46" stop-color="#C80B60" stop-opacity="0.94"/>
<stop offset="0.57" stop-color="#C70A63" stop-opacity="0.99"/>
<stop offset="0.73" stop-color="#C70A64"/>
</linearGradient>
<linearGradient id="paint11_linear_1466_208" x1="22.9162" y1="69.6719" x2="60.6462" y2="69.6719" gradientUnits="userSpaceOnUse">
<stop stop-color="#D13686"/>
<stop offset="1" stop-color="#58120F" stop-opacity="0.3"/>
</linearGradient>
<linearGradient id="paint12_linear_1466_208" x1="10.3359" y1="54.562" x2="27.2059" y2="54.562" gradientUnits="userSpaceOnUse">
<stop stop-color="#D13686"/>
<stop offset="1" stop-color="#58120F"/>
</linearGradient>
<linearGradient id="paint13_linear_1466_208" x1="4.53742" y1="70.732" x2="60.6974" y2="70.732" gradientUnits="userSpaceOnUse">
<stop stop-color="#E41A1C"/>
<stop offset="0.17" stop-color="#E41F1C"/>
<stop offset="0.4" stop-color="#E62F1C"/>
<stop offset="0.65" stop-color="#E84A1C"/>
<stop offset="0.74" stop-color="#EA561D"/>
</linearGradient>
<linearGradient id="paint14_linear_1466_208" x1="-8.21403" y1="44.1461" x2="37.6649" y2="112.718" gradientUnits="userSpaceOnUse">
<stop offset="0.2" stop-color="#A71A17"/>
<stop offset="0.25" stop-color="#B61D1B"/>
<stop offset="0.36" stop-color="#D02322"/>
<stop offset="0.45" stop-color="#DF2627"/>
<stop offset="0.53" stop-color="#E52829"/>
</linearGradient>
</defs>
</svg>
